<svg width="195" height="38" viewBox="0 0 195 38" fill="none" xmlns="http://www.w3.org/2000/svg">
<path d="M23.1712 10.8574H21.1846V28.5184H23.1712V10.8574Z" fill="#FF6600"/>
<path d="M31.0181 18.6846H13.3571V20.6712H31.0181V18.6846Z" fill="#FF6600"/>
<path d="M27.7319 12.7217L15.2393 25.2056L16.6436 26.6108L29.1361 14.127L27.7319 12.7217Z" fill="#FF6600"/>
<path d="M16.6288 12.7325L15.2241 14.1372L27.7123 26.6254L29.117 25.2207L16.6288 12.7325Z" fill="#FF6600"/>
<path d="M53.1291 10.8574H51.1424V28.5184H53.1291V10.8574Z" fill="#FF6600"/>
<path d="M60.9764 18.6846H43.3155V20.6712H60.9764V18.6846Z" fill="#FF6600"/>
<path d="M57.6838 12.7422L45.1912 25.2261L46.5955 26.6313L59.088 14.1475L57.6838 12.7422Z" fill="#FF6600"/>
<path d="M46.5933 12.7256L45.1886 14.1304L57.6768 26.6186L59.0815 25.2138L46.5933 12.7256Z" fill="#FF6600"/>
<path d="M83.0873 10.8574H81.1007V28.5184H83.0873V10.8574Z" fill="#FF6600"/>
<path d="M90.9343 18.6846H73.2733V20.6712H90.9343V18.6846Z" fill="#FF6600"/>
<path d="M87.6357 12.7442L75.1431 25.228L76.5474 26.6333L89.0399 14.1494L87.6357 12.7442Z" fill="#FF6600"/>
<path d="M76.5578 12.7198L75.1531 14.1245L87.6413 26.6127L89.046 25.208L76.5578 12.7198Z" fill="#FF6600"/>
<path d="M113.065 10.8574H111.079V28.5184H113.065V10.8574Z" fill="#FF6600"/>
<path d="M120.892 18.6846H103.231V20.6712H120.892V18.6846Z" fill="#FF6600"/>
<path d="M117.607 12.7452L105.115 25.229L106.519 26.6342L119.012 14.1504L117.607 12.7452Z" fill="#FF6600"/>
<path d="M106.536 12.7388L105.132 14.1436L117.62 26.6317L119.024 25.227L106.536 12.7388Z" fill="#FF6600"/>
<path d="M143.023 10.8574H141.037V28.5184H143.023V10.8574Z" fill="#FF6600"/>
<path d="M150.851 18.6846H133.19V20.6712H150.851V18.6846Z" fill="#FF6600"/>
<path d="M147.559 12.7461L135.067 25.23L136.471 26.6352L148.963 14.1514L147.559 12.7461Z" fill="#FF6600"/>
<path d="M136.481 12.7129L135.076 14.1177L147.564 26.6059L148.969 25.2011L136.481 12.7129Z" fill="#FF6600"/>
<path d="M172.981 10.8574H170.995V28.5184H172.981V10.8574Z" fill="#FF6600"/>
<path d="M180.828 18.6846H163.167V20.6712H180.828V18.6846Z" fill="#FF6600"/>
<path d="M177.525 12.7325L165.033 25.2163L166.437 26.6215L178.929 14.1377L177.525 12.7325Z" fill="#FF6600"/>
<path d="M166.445 12.7066L165.04 14.1113L177.529 26.5995L178.933 25.1948L166.445 12.7066Z" fill="#FF6600"/>
<rect x="2.5" y="1.80952" width="190" height="34.381" rx="7.2381" stroke="#EDEDED" stroke-width="3.61905"/>
</svg>
