<svg width="207" height="52" viewBox="0 0 207 52" fill="none" xmlns="http://www.w3.org/2000/svg">
<path d="M22.4807 10.8574H20.4941V28.5184H22.4807V10.8574Z" fill="#FF6600"/>
<path d="M30.3277 18.6846H12.6667V20.6712H30.3277V18.6846Z" fill="#FF6600"/>
<path d="M27.0414 12.7217L14.5489 25.2056L15.9531 26.6108L28.4457 14.127L27.0414 12.7217Z" fill="#FF6600"/>
<path d="M15.9384 12.7325L14.5336 14.1372L27.0218 26.6254L28.4266 25.2207L15.9384 12.7325Z" fill="#FF6600"/>
<path d="M52.4386 10.8574H50.452V28.5184H52.4386V10.8574Z" fill="#FF6600"/>
<path d="M60.286 18.6846H42.625V20.6712H60.286V18.6846Z" fill="#FF6600"/>
<path d="M56.9933 12.7422L44.5008 25.2261L45.905 26.6313L58.3976 14.1475L56.9933 12.7422Z" fill="#FF6600"/>
<path d="M45.9029 12.7256L44.4981 14.1304L56.9863 26.6186L58.391 25.2138L45.9029 12.7256Z" fill="#FF6600"/>
<path d="M82.3969 10.8574H80.4103V28.5184H82.3969V10.8574Z" fill="#FF6600"/>
<path d="M90.2438 18.6846H72.5828V20.6712H90.2438V18.6846Z" fill="#FF6600"/>
<path d="M86.9452 12.7442L74.4527 25.228L75.857 26.6333L88.3495 14.1494L86.9452 12.7442Z" fill="#FF6600"/>
<path d="M75.8673 12.7198L74.4626 14.1245L86.9508 26.6127L88.3555 25.208L75.8673 12.7198Z" fill="#FF6600"/>
<path d="M112.375 10.8574H110.388V28.5184H112.375V10.8574Z" fill="#FF6600"/>
<path d="M120.202 18.6846H102.541V20.6712H120.202V18.6846Z" fill="#FF6600"/>
<path d="M116.917 12.7452L104.424 25.229L105.829 26.6342L118.321 14.1504L116.917 12.7452Z" fill="#FF6600"/>
<path d="M105.846 12.7388L104.441 14.1436L116.929 26.6317L118.334 25.227L105.846 12.7388Z" fill="#FF6600"/>
<path d="M142.333 10.8574H140.346V28.5184H142.333V10.8574Z" fill="#FF6600"/>
<path d="M150.16 18.6846H132.499V20.6712H150.16V18.6846Z" fill="#FF6600"/>
<path d="M146.869 12.7461L134.376 25.23L135.78 26.6352L148.273 14.1514L146.869 12.7461Z" fill="#FF6600"/>
<path d="M135.79 12.7129L134.385 14.1177L146.874 26.6059L148.278 25.2011L135.79 12.7129Z" fill="#FF6600"/>
<path d="M172.291 10.8574H170.304V28.5184H172.291V10.8574Z" fill="#FF6600"/>
<path d="M180.138 18.6846H162.477V20.6712H180.138V18.6846Z" fill="#FF6600"/>
<path d="M176.835 12.7325L164.342 25.2163L165.746 26.6215L178.239 14.1377L176.835 12.7325Z" fill="#FF6600"/>
<path d="M165.755 12.7066L164.35 14.1113L176.838 26.5995L178.243 25.1948L165.755 12.7066Z" fill="#FF6600"/>
<rect x="1.80952" y="1.80952" width="190" height="34.381" rx="7.2381" stroke="#EDEDED" stroke-width="3.61905"/>
<circle cx="192.5" cy="37.5" r="14.5" fill="#FF6600"/>
<path d="M193.486 40.5762H190.84C190.84 39.9967 190.882 39.4922 190.967 39.0625C191.058 38.6263 191.208 38.2357 191.416 37.8906C191.624 37.5391 191.904 37.2038 192.256 36.8848C192.562 36.6178 192.829 36.3672 193.057 36.1328C193.285 35.8919 193.46 35.6445 193.584 35.3906C193.708 35.1367 193.77 34.86 193.77 34.5605C193.77 34.2025 193.714 33.9095 193.604 33.6816C193.499 33.4473 193.343 33.2715 193.135 33.1543C192.933 33.0306 192.679 32.9688 192.373 32.9688C192.119 32.9688 191.882 33.0273 191.66 33.1445C191.439 33.2552 191.26 33.431 191.123 33.6719C190.986 33.9128 190.911 34.2285 190.898 34.6191H187.832C187.852 33.6882 188.063 32.9264 188.467 32.334C188.87 31.735 189.411 31.2956 190.088 31.0156C190.771 30.7292 191.533 30.5859 192.373 30.5859C193.304 30.5859 194.102 30.7324 194.766 31.0254C195.436 31.3184 195.947 31.7513 196.299 32.3242C196.657 32.8971 196.836 33.597 196.836 34.4238C196.836 34.9902 196.729 35.4883 196.514 35.918C196.299 36.3411 196.012 36.7383 195.654 37.1094C195.296 37.474 194.899 37.8548 194.463 38.252C194.092 38.584 193.838 38.929 193.701 39.2871C193.564 39.6387 193.493 40.0684 193.486 40.5762ZM190.488 43.5645C190.488 43.1283 190.645 42.7604 190.957 42.4609C191.276 42.1615 191.689 42.0117 192.197 42.0117C192.705 42.0117 193.115 42.1615 193.428 42.4609C193.74 42.7604 193.896 43.1283 193.896 43.5645C193.896 44.0072 193.74 44.3783 193.428 44.6777C193.115 44.9707 192.705 45.1172 192.197 45.1172C191.689 45.1172 191.276 44.9707 190.957 44.6777C190.645 44.3783 190.488 44.0072 190.488 43.5645Z" fill="white"/>
</svg>
