<svg width="169" height="158" viewBox="0 0 169 158" fill="none" xmlns="http://www.w3.org/2000/svg">
<path d="M1.69525 34.4935C0.823621 12.5939 15.9812 1.70287 33.5794 5.97384C42.0168 8.02217 50.5064 19.4841 58.4775 23.2757C68.876 28.2396 78.9302 26.6445 89.4203 28.2701C115.534 32.3101 113.325 42.8437 128.365 60.0845C138.937 72.2176 158.872 75.2291 162.48 93.4069C166.877 115.633 142.136 120.828 125.192 114.186C105.733 106.56 95.7526 130.495 65.5769 121.408C35.8936 112.482 2.56688 67.3931 1.69525 34.4935Z" fill="#FF6600"/>
<path opacity="0.9" d="M1.69525 34.4935C0.823621 12.5939 15.9812 1.70287 33.5794 5.97384C42.0168 8.02217 50.5064 19.4841 58.4775 23.2757C68.876 28.2396 78.9302 26.6445 89.4203 28.2701C115.534 32.3101 113.325 42.8437 128.365 60.0845C138.937 72.2176 158.872 75.2291 162.48 93.4069C166.877 115.633 142.136 120.828 125.192 114.186C105.733 106.56 95.7526 130.495 65.5769 121.408C35.8936 112.482 2.56688 67.3931 1.69525 34.4935Z" fill="white"/>
<path d="M84.5 157.777C131.168 157.777 169 155.568 169 152.844C169 150.119 131.168 147.91 84.5 147.91C37.8319 147.91 0 150.119 0 152.844C0 155.568 37.8319 157.777 84.5 157.777Z" fill="#F5F5F5"/>
<path d="M108.095 90.4734C109.603 97.5728 101.514 100.576 98.154 97.4464C94.7939 94.3173 94.9595 84.7511 90.427 84.4984C96.9686 79.4342 106.626 83.5657 108.095 90.4734Z" fill="#263238"/>
<path d="M101.497 134.766C101.312 134.766 101.133 134.698 100.995 134.575C100.857 134.452 100.769 134.283 100.747 134.099C99.0738 120.018 101.183 86.3817 118.433 72.2788C118.509 72.2094 118.598 72.1563 118.696 72.1226C118.793 72.089 118.896 72.0756 118.999 72.0831C119.101 72.0906 119.202 72.119 119.293 72.1665C119.384 72.214 119.465 72.2796 119.53 72.3593C119.595 72.439 119.644 72.5312 119.672 72.6302C119.701 72.7291 119.709 72.8329 119.696 72.935C119.683 73.0372 119.649 73.1356 119.597 73.2244C119.544 73.3131 119.474 73.3902 119.391 73.4511C102.639 87.1531 100.608 120.109 102.251 133.92C102.273 134.119 102.216 134.319 102.092 134.477C101.968 134.634 101.787 134.736 101.588 134.761L101.497 134.766Z" fill="#FF6600"/>
<path d="M95.3519 152.843H107.633C108.045 152.843 108.445 152.703 108.766 152.445C109.088 152.188 109.312 151.829 109.403 151.427L114.528 128.708C114.587 128.442 114.586 128.166 114.525 127.901C114.463 127.635 114.343 127.387 114.172 127.175C114.002 126.962 113.786 126.791 113.541 126.673C113.295 126.555 113.026 126.494 112.754 126.494H90.231C89.9588 126.493 89.69 126.555 89.4446 126.672C89.1992 126.79 88.9835 126.962 88.8135 127.175C88.6435 127.387 88.5236 127.636 88.4627 127.901C88.4018 128.166 88.4014 128.442 88.4616 128.708L93.5825 151.431C93.6742 151.832 93.8991 152.19 94.2205 152.446C94.5418 152.703 94.9407 152.842 95.3519 152.843Z" fill="#FF6600"/>
<path opacity="0.6" d="M95.3519 152.843H107.633C108.045 152.843 108.445 152.703 108.766 152.445C109.088 152.188 109.312 151.829 109.403 151.427L114.528 128.708C114.587 128.442 114.586 128.166 114.525 127.901C114.463 127.635 114.343 127.387 114.172 127.175C114.002 126.962 113.786 126.791 113.541 126.673C113.295 126.555 113.026 126.494 112.754 126.494H90.231C89.9588 126.493 89.69 126.555 89.4446 126.672C89.1992 126.79 88.9835 126.962 88.8135 127.175C88.6435 127.387 88.5236 127.636 88.4627 127.901C88.4018 128.166 88.4014 128.442 88.4616 128.708L93.5825 151.431C93.6742 151.832 93.8991 152.19 94.2205 152.446C94.5418 152.703 94.9407 152.842 95.3519 152.843Z" fill="white"/>
<path d="M106.727 91.89C106.668 91.8889 106.609 91.8816 106.552 91.8682C106.456 91.8456 106.365 91.8043 106.284 91.7465C106.204 91.6887 106.136 91.6156 106.083 91.5314C106.031 91.4473 105.996 91.3536 105.98 91.2559C105.964 91.1581 105.967 91.0581 105.99 90.9617C105.99 90.8527 108.452 80.1361 104.709 73.8386C104.607 73.6652 104.577 73.4583 104.628 73.2634C104.678 73.0684 104.803 72.9014 104.977 72.7991C105.15 72.6969 105.357 72.6676 105.552 72.7179C105.747 72.7682 105.914 72.8938 106.016 73.0672C110.087 79.8877 107.598 90.8527 107.481 91.2886C107.444 91.4607 107.349 91.6149 107.212 91.7246C107.074 91.8343 106.903 91.8928 106.727 91.89Z" fill="#FF6600"/>
<path d="M113.098 69.6549C112.793 76.4972 127.646 79.7614 132.405 76.8676C137.164 73.9738 133.804 64.6648 141.496 64.5951C128.635 59.3871 113.395 62.9956 113.098 69.6549Z" fill="#FF6600"/>
<path d="M109.503 70.6527C112.327 76.2267 104.548 79.5215 100.56 77.3424C96.5721 75.1633 94.9901 67.4146 90.3008 67.6978C96.1015 62.917 106.753 65.2268 109.503 70.6527Z" fill="#FF6600"/>
<path d="M101.061 123.256H101.03C100.83 123.247 100.642 123.159 100.506 123.013C100.37 122.866 100.297 122.671 100.303 122.471C100.303 122.358 100.638 111.07 94.297 109.706C94.1011 109.664 93.93 109.546 93.8213 109.377C93.7126 109.209 93.6752 109.004 93.7174 108.808C93.7596 108.613 93.8779 108.441 94.0462 108.333C94.2146 108.224 94.4192 108.187 94.6152 108.229C102.194 109.854 101.837 122.009 101.815 122.528C101.808 122.723 101.726 122.908 101.585 123.044C101.444 123.18 101.256 123.256 101.061 123.256Z" fill="#FF6600"/>
<path d="M98.9255 107.108C100.895 110.761 94.855 115.21 91.8697 114.517C88.8844 113.824 87.9473 108.146 84.3606 109.514C88.9541 104.363 97.0079 103.557 98.9255 107.108Z" fill="#FF6600"/>
<path d="M101.841 112.578C101.786 112.585 101.731 112.585 101.675 112.578C101.48 112.534 101.311 112.414 101.203 112.245C101.095 112.076 101.059 111.872 101.1 111.676C101.214 111.162 103.977 99.0594 112.231 95.8388C112.325 95.7973 112.426 95.7753 112.528 95.774C112.631 95.7727 112.732 95.7922 112.827 95.8314C112.922 95.8705 113.008 95.9284 113.079 96.0016C113.151 96.0749 113.207 96.1619 113.244 96.2574C113.282 96.3529 113.299 96.455 113.296 96.5574C113.292 96.6599 113.268 96.7606 113.225 96.8534C113.181 96.9463 113.119 97.0293 113.043 97.0977C112.967 97.166 112.877 97.218 112.78 97.2508C105.271 100.179 102.604 111.885 102.578 112.003C102.537 112.168 102.443 112.314 102.309 112.419C102.176 112.523 102.011 112.579 101.841 112.578Z" fill="#FF6600"/>
<path d="M110.906 91.8643C104.957 94.976 108.971 101.627 113.608 101.888C118.245 102.15 124.634 96.619 128.195 99.2426C126.739 92.3873 116.703 88.8354 110.906 91.8643Z" fill="#FF6600"/>
<path d="M61.7374 65.6149C61.5477 65.4741 61.4215 65.2639 61.3864 65.0303C61.3513 64.7967 61.4101 64.5588 61.55 64.3684L99.0561 13.3433C99.1969 13.1537 99.4071 13.0275 99.6407 12.9924C99.8742 12.9572 100.112 13.016 100.303 13.1559C100.492 13.2967 100.618 13.5069 100.654 13.7405C100.689 13.974 100.63 14.212 100.49 14.4024L62.9838 65.4231C62.9163 65.5198 62.8299 65.6017 62.7299 65.6641C62.6298 65.7264 62.5181 65.7678 62.4016 65.7857C62.2851 65.8036 62.1661 65.7977 62.052 65.7684C61.9378 65.739 61.8308 65.6868 61.7374 65.6149Z" fill="#FF6600"/>
<path d="M118.635 35.931L117.244 37.8408L117.604 38.1031L118.996 36.1933L118.635 35.931Z" fill="#FF6600"/>
<path d="M120.485 35.0682L120.123 34.8067C120.567 34.2016 120.752 33.4456 120.64 32.704C120.527 31.9624 120.125 31.2957 119.522 30.8495L109.969 23.8286L110.23 23.4712L119.801 30.4791C120.148 30.7352 120.44 31.0571 120.662 31.4265C120.884 31.7959 121.031 32.2054 121.095 32.6317C121.159 33.058 121.137 33.4926 121.033 33.9107C120.928 34.3288 120.742 34.7221 120.485 35.0682Z" fill="#FF6600"/>
<path d="M104.547 51.2327L62.7092 20.486C62.5275 20.3524 62.3738 20.1843 62.257 19.9913C62.1402 19.7983 62.0626 19.5842 62.0286 19.3612C61.9946 19.1382 62.0049 18.9107 62.0589 18.6917C62.1129 18.4726 62.2094 18.2664 62.3432 18.0847L74.6418 1.3538C74.775 1.17156 74.943 1.01746 75.136 0.900351C75.329 0.783243 75.5432 0.70544 75.7664 0.671418C75.9895 0.637397 76.2172 0.647827 76.4363 0.702108C76.6555 0.756389 76.8617 0.853454 77.0432 0.987715L118.881 31.7344C119.063 31.8676 119.216 32.0353 119.333 32.2279C119.45 32.4206 119.528 32.6343 119.562 32.857C119.596 33.0796 119.585 33.3068 119.531 33.5255C119.477 33.7441 119.381 33.95 119.247 34.1314L106.949 50.8666C106.815 51.0489 106.648 51.203 106.455 51.3201C106.262 51.4372 106.047 51.515 105.824 51.549C105.601 51.583 105.373 51.5726 105.154 51.5183C104.935 51.464 104.729 51.367 104.547 51.2327Z" fill="white"/>
<path d="M105.541 51.7909C105.129 51.7904 104.728 51.6591 104.395 51.4161L62.557 20.6651C62.3509 20.515 62.1766 20.3255 62.0441 20.1077C61.9116 19.8899 61.8236 19.648 61.7851 19.396C61.7466 19.1439 61.7584 18.8868 61.8198 18.6393C61.8812 18.3919 61.991 18.1591 62.1429 17.9543L74.4416 1.21905C74.7437 0.802296 75.1987 0.522369 75.7069 0.440667C76.2151 0.358966 76.7349 0.482162 77.1524 0.783232L118.991 31.5343C119.403 31.8394 119.679 32.2952 119.758 32.8025C119.797 33.0546 119.786 33.3121 119.724 33.5598C119.663 33.8075 119.553 34.0405 119.4 34.245L107.101 50.9803C106.796 51.3931 106.341 51.6687 105.833 51.7473C105.737 51.7681 105.639 51.7826 105.541 51.7909ZM104.67 51.0544C104.983 51.2836 105.374 51.381 105.759 51.3256C106.143 51.2702 106.491 51.0665 106.727 50.758L119.03 34.0228C119.264 33.7043 119.362 33.306 119.302 32.9153C119.242 32.5247 119.03 32.1737 118.712 31.9396L76.8734 1.18854C76.716 1.07213 76.537 0.987998 76.3469 0.940973C76.1568 0.893949 75.9593 0.884961 75.7657 0.914526C75.5721 0.944091 75.3863 1.01163 75.2189 1.11325C75.0515 1.21487 74.9058 1.34858 74.7903 1.50668L62.4872 18.2419C62.253 18.5601 62.1543 18.9581 62.2127 19.3489C62.2415 19.5429 62.3088 19.7292 62.4106 19.8968C62.5123 20.0644 62.6466 20.2101 62.8054 20.3251L104.67 51.0544Z" fill="#FF6600"/>
<path d="M72.9292 35.217C73.0991 35.5831 73.2125 35.8446 73.3388 36.1497C73.4652 36.4547 73.5742 36.738 73.6875 37.0213C73.9141 37.6053 74.1233 38.198 74.2976 38.7907C74.6699 39.9791 74.9783 41.1866 75.2216 42.408C75.3523 43.0181 75.4525 43.637 75.5528 44.2558C75.653 44.8747 75.7184 45.5066 75.7663 46.1385C75.8791 47.4137 75.9068 48.6949 75.8491 49.9737V50.1916C75.8447 50.3315 75.8242 50.4704 75.7881 50.6056C75.5625 51.4687 75.1879 52.2858 74.6811 53.02C74.2868 53.5994 73.8497 54.1486 73.3737 54.6631C72.5268 55.5887 71.6103 56.4483 70.6324 57.2344C69.6911 57.997 68.7279 58.703 67.743 59.3611C66.7574 60.0219 65.7392 60.6328 64.6923 61.1915C64.3432 61.3789 63.9389 61.436 63.5516 61.3527C63.1642 61.2693 62.8192 61.0509 62.5781 60.7365C62.3371 60.422 62.2157 60.0321 62.2358 59.6364C62.2558 59.2408 62.416 58.8651 62.6875 58.5767L62.7224 58.5374L64.9799 56.1012C65.7252 55.2819 66.4573 54.4669 67.159 53.6432C67.8272 52.8596 68.4528 52.0405 69.033 51.1896C69.2833 50.8254 69.5048 50.4421 69.6954 50.0434C69.8189 49.8247 69.8961 49.5829 69.9221 49.333L69.8567 49.9693C69.7695 48.9582 69.6649 47.9472 69.4775 46.9186C69.2901 45.8901 69.0809 44.879 68.8107 43.8679C68.5405 42.8568 68.2529 41.8327 67.9391 40.8172C67.7735 40.3161 67.5948 39.8192 67.4248 39.3268L67.1546 38.5989L66.9019 37.9365L66.8365 37.7665C66.5397 36.9623 66.5645 36.0745 66.9059 35.2881C67.2472 34.5017 67.8787 33.8773 68.6689 33.5448C69.4591 33.2123 70.3471 33.1974 71.148 33.5032C71.9488 33.809 72.6009 34.412 72.9684 35.1865L72.9292 35.217Z" fill="#B55B52"/>
<path d="M51.265 10.3144C48.4453 13.0165 48.7983 26.226 49.9576 38.7949C51.1168 51.3637 61.7638 49.2849 65.7166 43.8372C70.9464 36.594 65.0629 25.7509 65.9084 21.48C66.8279 16.8385 67.5165 11.587 61.9468 8.40554C55.8977 4.94082 50.6549 7.5557 51.265 10.3144Z" fill="#263238"/>
<path d="M49.2777 39.989H49.2559C49.1931 39.9824 49.1353 39.9512 49.0953 39.9023C49.0553 39.8533 49.0363 39.7905 49.0424 39.7275C49.3954 36.241 49.0729 31.7042 48.7635 27.3199C48.1795 19.083 47.626 11.2994 51.3261 10.0878C51.3558 10.0777 51.3873 10.0736 51.4186 10.0758C51.45 10.078 51.4806 10.0864 51.5086 10.1007C51.5366 10.1149 51.5615 10.1346 51.5818 10.1586C51.6021 10.1825 51.6174 10.2104 51.6268 10.2404C51.6461 10.3005 51.6409 10.3658 51.6123 10.4221C51.5838 10.4784 51.5341 10.5211 51.4742 10.5411C48.1315 11.635 48.6937 19.5929 49.2385 27.2894C49.5523 31.6911 49.8748 36.241 49.5174 39.7755C49.511 39.8344 49.4829 39.8889 49.4386 39.9283C49.3943 39.9677 49.337 39.9894 49.2777 39.989Z" fill="#263238"/>
<path d="M54.4987 37.1734L53.4222 40.2241C53.0605 41.257 52.7205 42.2898 52.385 43.3184C52.0494 44.3469 51.7443 45.3754 51.4654 46.3691C51.1865 47.3627 50.9511 48.3869 50.7812 49.3457V48.8488C50.7602 49.3888 50.8324 49.9284 50.9947 50.4439C51.0906 50.7359 51.2039 51.0366 51.339 51.3504C51.4741 51.6642 51.6528 51.9649 51.8358 52.2831C52.2256 52.94 52.6625 53.5678 53.1433 54.1614C53.3917 54.4708 53.6532 54.7803 53.9278 55.081L54.7253 55.9526L54.8996 56.14C55.1518 56.4193 55.3017 56.7759 55.3247 57.1515C55.3477 57.527 55.2424 57.8993 55.0261 58.2072C54.8099 58.5151 54.4955 58.7405 54.1344 58.8463C53.7733 58.9522 53.387 58.9322 53.0387 58.7898C52.7511 58.6677 52.5419 58.5849 52.3065 58.476C52.0712 58.367 51.8707 58.2624 51.631 58.1447C51.1923 57.9123 50.7565 57.6595 50.3236 57.3864C49.4576 56.8237 48.6515 56.1739 47.9179 55.4471C47.1241 54.6554 46.4436 53.7579 45.8957 52.7799C45.6073 52.244 45.3625 51.6858 45.1635 51.1107C44.9564 50.5006 44.8104 49.8714 44.7277 49.2324C44.7213 49.1599 44.7213 49.0869 44.7277 49.0144V48.7355C44.9043 46.276 45.3218 43.8398 45.9742 41.4618C46.2705 40.3069 46.6235 39.1738 46.9896 38.0494C47.3557 36.925 47.7523 35.8441 48.236 34.6936C48.5653 33.8871 49.1975 33.2418 49.9971 32.8961C50.7966 32.5503 51.6999 32.5317 52.513 32.8442C53.3261 33.1566 53.9844 33.7753 54.3467 34.5676C54.7089 35.3598 54.7463 36.2624 54.4507 37.0819L54.4987 37.1734Z" fill="#B55B52"/>
<path d="M53.1214 30.6147C49.6349 31.2728 48.9071 32.6936 46.3489 37.9713C47.1203 41.4578 51.9752 44.5085 51.9752 44.5085C51.9752 44.5085 58.8393 35.108 53.1214 30.6147Z" fill="#FF6600"/>
<path d="M47.5953 37.1907C47.5386 39.0429 47.7216 41.283 48.1357 45.689C48.4189 49.424 47.4863 56.5234 48.663 57.0202H67.5032C67.8824 51.6728 67.7429 47.9901 71.1249 36.0532C71.3243 35.429 71.3816 34.7681 71.2925 34.119C71.2034 33.4698 70.9702 32.8487 70.6101 32.3014C70.2499 31.754 69.7718 31.2941 69.2108 30.9554C68.6499 30.6167 68.0203 30.4078 67.3681 30.344C66.6185 30.2699 65.8297 30.2046 65.0147 30.1653C62.1681 29.9625 59.3107 29.9625 56.4641 30.1653C55.5358 30.2525 54.5726 30.3702 53.6487 30.4966C52.0197 30.7366 50.5248 31.5357 49.4204 32.757C48.316 33.9783 47.6707 35.5458 47.5953 37.1907Z" fill="#FF6600"/>
<path d="M56.1721 34.7764C56.0762 35.1295 55.867 35.3779 55.7362 35.3343C55.6055 35.2907 55.5358 34.9726 55.636 34.6196C55.7362 34.2665 55.9367 34.0225 56.0936 34.0661C56.2505 34.1096 56.2766 34.4278 56.1721 34.7764Z" fill="white"/>
<path d="M55.4835 37.6829C55.4355 38.0447 55.2699 38.3236 55.113 38.3018C54.9561 38.28 54.8603 37.9749 54.9038 37.6132C54.9474 37.2515 55.113 36.9726 55.2743 36.9944C55.4355 37.0161 55.5271 37.3256 55.4835 37.6829Z" fill="white"/>
<path d="M63.2018 20.8569C63.119 23.7028 62.7659 28.3529 64.5441 30.1877C64.5441 30.1877 61.9292 29.7998 56.4031 33.2384C54.7993 30.9373 55.989 30.1877 55.989 30.1877C57.5667 29.9001 58.9439 28.2963 58.0809 26.3046L63.2018 20.8569Z" fill="#B55B52"/>
<path d="M57.5667 32.5316C59.3884 32.7888 59.9593 35.5431 59.9593 35.5431C59.9593 35.5431 64.3174 32.4445 65.7251 30.2611C65.1745 29.9509 64.6406 29.612 64.1257 29.2456C64.1257 29.2456 58.63 31.477 57.5667 32.5316Z" fill="white"/>
<path d="M55.8322 32.2358C55.8322 32.2358 54.3853 32.5496 53.6532 34.5631C53.2174 30.5492 55.1393 30.1788 55.1393 30.1788C55.6411 29.9012 56.2273 29.8174 56.7867 29.9435C56.3858 30.1549 56.0711 30.4994 55.8969 30.9179C55.7227 31.3363 55.6998 31.8024 55.8322 32.2358Z" fill="white"/>
<path opacity="0.2" d="M59.9986 24.6087L59.2795 25.0445L58.0811 26.317C58.391 26.9663 58.4332 27.7114 58.1987 28.3915C59.5628 27.8598 60.94 26.7921 61.3061 25.6372V25.611C61.3633 25.439 61.3654 25.2535 61.3122 25.0802C61.259 24.9069 61.1532 24.7545 61.0093 24.6443C60.8655 24.534 60.6908 24.4713 60.5097 24.4649C60.3285 24.4585 60.1499 24.5088 59.9986 24.6087Z" fill="black"/>
<path d="M62.2734 14.1842C63.5809 18.5074 64.2346 20.2856 62.9707 23.3668C61.0749 27.9733 55.6447 28.8973 53.1039 25.11C50.8202 21.702 49.0508 15.1996 52.4327 11.7828C55.8146 8.36605 60.966 9.85653 62.2734 14.1842Z" fill="#B55B52"/>
<path d="M56.3901 18.098C56.5165 18.4554 56.4381 18.8215 56.2158 18.9174C55.9935 19.0132 55.7102 18.7997 55.5839 18.4423C55.4575 18.0849 55.5359 17.7145 55.7582 17.6186C55.9804 17.5227 56.2637 17.7363 56.3901 18.098Z" fill="#263238"/>
<path d="M52.2498 19.9589C52.3761 20.3163 52.2977 20.6867 52.0754 20.7826C51.8532 20.8785 51.5743 20.6649 51.4479 20.3032C51.3215 19.9415 51.3999 19.5798 51.6222 19.4839C51.8445 19.388 52.1147 19.6015 52.2498 19.9589Z" fill="#263238"/>
<path d="M51.718 19.4614L50.8159 19.5617C50.8159 19.5617 51.4696 20.0541 51.718 19.4614Z" fill="#263238"/>
<path d="M53.4615 19.7544C53.4456 20.7048 53.3094 21.6493 53.0562 22.5654C53.6619 22.8138 54.3636 22.2821 54.3636 22.2821L53.4615 19.7544Z" fill="#A02724"/>
<path d="M56.3115 22.3339C56.5169 22.2935 56.7255 22.2716 56.9347 22.2686C56.9488 22.2685 56.9628 22.2714 56.9758 22.2769C56.9888 22.2824 57.0005 22.2905 57.0103 22.3007C57.0201 22.3109 57.0277 22.3229 57.0327 22.3361C57.0377 22.3493 57.0399 22.3634 57.0393 22.3775C57.0372 22.4076 57.024 22.4358 57.0023 22.4568C56.9805 22.4777 56.9518 22.4898 56.9217 22.4908C56.4494 22.4969 55.9846 22.609 55.5615 22.8186C55.1383 23.0283 54.7676 23.3303 54.4767 23.7024C54.469 23.7138 54.4591 23.7236 54.4476 23.7313C54.4361 23.7389 54.4232 23.7442 54.4096 23.7468C54.3961 23.7494 54.3821 23.7494 54.3686 23.7466C54.3551 23.7438 54.3422 23.7384 54.3307 23.7307C54.3193 23.723 54.3095 23.7131 54.3019 23.7016C54.2943 23.69 54.289 23.6771 54.2863 23.6636C54.2837 23.65 54.2838 23.6361 54.2865 23.6226C54.2893 23.609 54.2947 23.5962 54.3024 23.5847C54.7935 22.9327 55.5097 22.4869 56.3115 22.3339Z" fill="#263238"/>
<path d="M64.518 17.0168C64.5437 17.4474 64.4795 17.8786 64.3294 18.283C64.1794 18.6875 63.9467 19.0562 63.6464 19.3658C62.8663 20.0936 61.9031 19.2569 61.6547 18.0584C61.4281 16.9688 61.5632 15.2822 62.5743 15.0338C63.5854 14.7854 64.4875 15.8532 64.518 17.0168Z" fill="#FFB573"/>
<path d="M58.7872 9.92172C55.5186 13.4344 59.9028 21.7497 59.454 27.7291C58.9092 35.0595 63.4024 36.1359 66.2309 30.2655C64.1259 24.7133 66.3006 16.3979 65.734 13.4823C65.076 10.1396 61.1101 8.29178 58.7872 9.92172Z" fill="#263238"/>
<path d="M54.5552 15.1732C54.584 15.1693 54.6132 15.1716 54.641 15.1799C54.6688 15.1881 54.6945 15.2022 54.7165 15.2212C54.9135 15.4039 55.1529 15.5347 55.4132 15.6016C55.6734 15.6686 55.9462 15.6696 56.207 15.6047C56.2336 15.5961 56.2616 15.593 56.2895 15.5956C56.3173 15.5983 56.3443 15.6066 56.3688 15.6201C56.3933 15.6335 56.4148 15.6519 56.4319 15.674C56.449 15.6961 56.4615 15.7214 56.4684 15.7485C56.4814 15.8067 56.4727 15.8677 56.4438 15.9199C56.4148 15.9721 56.3678 16.0119 56.3116 16.0318C55.9825 16.1188 55.6368 16.1217 55.3063 16.0402C54.9758 15.9587 54.6711 15.7955 54.4201 15.5655C54.3896 15.5348 54.3683 15.4963 54.3587 15.4542C54.349 15.4121 54.3513 15.3681 54.3654 15.3272C54.3794 15.2864 54.4047 15.2503 54.4383 15.223C54.4718 15.1958 54.5123 15.1786 54.5552 15.1732Z" fill="#263238"/>
<path d="M50.2538 18.7562C50.2283 18.7668 50.2009 18.7723 50.1732 18.7723C50.1455 18.7723 50.1181 18.7668 50.0926 18.7562C50.0392 18.733 49.9968 18.6903 49.9741 18.6367C49.9513 18.5832 49.9501 18.523 49.9705 18.4685C50.0825 18.1296 50.2708 17.821 50.5209 17.5663C50.771 17.3117 51.0763 17.1179 51.4131 16.9998C51.4403 16.9921 51.4689 16.9902 51.4969 16.9943C51.525 16.9984 51.5518 17.0084 51.5757 17.0237C51.5996 17.0389 51.62 17.059 51.6355 17.0827C51.651 17.1064 51.6614 17.1331 51.6659 17.1611C51.6792 17.2194 51.6693 17.2806 51.6384 17.3318C51.6076 17.383 51.558 17.4202 51.5002 17.4356C51.2356 17.5341 50.9966 17.691 50.8012 17.8948C50.6057 18.0985 50.4588 18.3438 50.3715 18.6123C50.3629 18.6431 50.348 18.6718 50.3277 18.6966C50.3075 18.7214 50.2823 18.7416 50.2538 18.7562Z" fill="#263238"/>
<path d="M55.8628 17.5967L54.9607 17.7013C54.9607 17.7013 55.6144 18.1937 55.8628 17.5967Z" fill="#263238"/>
<path d="M67.5381 30.3877C70.5888 30.8627 71.8309 31.7954 74.3368 37.9578C73.1993 40.2545 68.109 46.0726 68.109 46.0726C68.109 46.0726 63.7029 34.8766 67.5381 30.3877Z" fill="#FF6600"/>
<path d="M70.6937 149.688C72.5154 146.781 72.5982 145.979 73.7836 144.458C74.7947 143.151 74.799 143.251 76.0411 142.126C76.8648 141.381 76.1849 140.313 75.2871 139.86C74.5855 139.512 73.8228 139.202 72.9773 138.736L69.7436 141.669C70.3058 143.338 69.992 146.811 68.763 149.117C67.887 150.76 69.9659 150.847 70.6937 149.688Z" fill="#263238"/>
<path d="M48.6631 57.0425C48.6631 57.0425 48.2273 80.5372 47.6912 96.5665C47.5903 99.7797 48.2881 102.968 49.7221 105.845C55.3877 117.22 69.5081 141.943 69.5081 141.943C70.0746 142.44 72.7767 139.529 72.9946 138.727C72.9946 138.727 65.3155 107.484 58.5081 100.484C67.5556 75.4469 65.0976 57.0425 65.0976 57.0425H48.6631Z" fill="#263238"/>
<g opacity="0.2">
<path opacity="0.2" d="M65.1585 57.731L56.281 58.3585C56.281 58.3585 57.7279 84.1631 59.1399 98.6321C66.4529 77.3426 65.481 61.2175 65.1585 57.731Z" fill="black"/>
<path opacity="0.2" d="M59.4407 101.604C60.2339 109.013 61.0532 118.679 61.4236 127.596C64.3349 132.826 66.9454 137.432 68.3705 139.938C69.0634 136.831 69.8043 133.122 70.397 129.191C67.7734 120.1 63.5243 107.021 59.4407 101.604Z" fill="black"/>
</g>
<path d="M67.7735 140.723C68.0916 141.124 68.6451 141.839 69.0548 142.388C69.1221 142.469 69.2167 142.523 69.3209 142.54C69.4251 142.557 69.5318 142.535 69.6214 142.479C70.9932 141.402 72.2625 140.2 73.4129 138.888C73.4686 138.824 73.5031 138.745 73.5117 138.661C73.5203 138.576 73.5025 138.491 73.4609 138.418L72.537 136.775C72.5071 136.723 72.4661 136.678 72.4171 136.644C72.368 136.609 72.312 136.586 72.253 136.576C72.194 136.565 72.1334 136.568 72.0755 136.583C72.0177 136.599 71.9639 136.627 71.9181 136.666L67.8258 140.152C67.7849 140.186 67.751 140.228 67.7263 140.275C67.7015 140.322 67.6862 140.374 67.6814 140.427C67.6765 140.48 67.6822 140.533 67.698 140.584C67.7138 140.635 67.7394 140.682 67.7735 140.723Z" fill="#FF6600"/>
<path opacity="0.3" d="M67.7735 140.723C68.0916 141.124 68.6451 141.839 69.0548 142.388C69.1221 142.469 69.2167 142.523 69.3209 142.54C69.4251 142.557 69.5318 142.535 69.6214 142.479C70.9932 141.402 72.2625 140.2 73.4129 138.888C73.4686 138.824 73.5031 138.745 73.5117 138.661C73.5203 138.576 73.5025 138.491 73.4609 138.418L72.537 136.775C72.5071 136.723 72.4661 136.678 72.4171 136.644C72.368 136.609 72.312 136.586 72.253 136.576C72.194 136.565 72.1334 136.568 72.0755 136.583C72.0177 136.599 71.9639 136.627 71.9181 136.666L67.8258 140.152C67.7849 140.186 67.751 140.228 67.7263 140.275C67.7015 140.322 67.6862 140.374 67.6814 140.427C67.6765 140.48 67.6822 140.533 67.698 140.584C67.7138 140.635 67.7394 140.682 67.7735 140.723Z" fill="white"/>
<path d="M58.9613 152.838C62.4478 152.838 63.7814 152.781 65.7513 152.716C67.4335 152.659 67.817 152.868 69.1681 152.838C70.2968 152.812 70.3535 151.735 70.1181 150.493C70.0005 149.87 69.8 149.107 69.6518 148.101H64.3523C63.5068 149.473 60.4038 150.506 58.4122 150.768C56.5164 151.021 57.571 152.838 58.9613 152.838Z" fill="#263238"/>
<path d="M53.5876 57.0424C53.5876 57.0424 59.0658 87.2138 61.0749 100.877C63.1843 115.258 65.7817 138.548 64.3523 148.088C65.128 148.563 67.9957 148.594 69.6517 148.088C69.6517 148.088 76.9516 116.766 71.0333 101.513C75.0123 67.9029 69.1244 66.1509 67.4988 57.0293L53.5876 57.0424Z" fill="#263238"/>
<path d="M64.1345 146.114C64.0593 146.775 63.9384 147.43 63.7728 148.075C63.7556 148.126 63.7499 148.18 63.7561 148.234C63.7622 148.287 63.7801 148.339 63.8084 148.384C63.8367 148.43 63.8747 148.469 63.9198 148.498C63.9649 148.528 64.0159 148.547 64.0692 148.554C65.9824 148.868 68.8282 148.415 69.7347 148.258C69.8217 148.244 69.9023 148.204 69.9661 148.143C70.0299 148.083 70.0738 148.004 70.0921 147.918L70.5497 146.088C70.5664 146.031 70.5694 145.972 70.5584 145.914C70.5474 145.856 70.5228 145.801 70.4865 145.755C70.4503 145.709 70.4036 145.671 70.3501 145.647C70.2967 145.622 70.2381 145.61 70.1793 145.613L64.5703 145.722C64.4619 145.721 64.3572 145.761 64.2766 145.833C64.196 145.906 64.1454 146.006 64.1345 146.114Z" fill="#FF6600"/>
<path opacity="0.3" d="M64.1345 146.114C64.0593 146.775 63.9384 147.43 63.7728 148.075C63.7556 148.126 63.7499 148.18 63.7561 148.234C63.7622 148.287 63.7801 148.339 63.8084 148.384C63.8367 148.43 63.8747 148.469 63.9198 148.498C63.9649 148.528 64.0159 148.547 64.0692 148.554C65.9824 148.868 68.8282 148.415 69.7347 148.258C69.8217 148.244 69.9023 148.204 69.9661 148.143C70.0299 148.083 70.0738 148.004 70.0921 147.918L70.5497 146.088C70.5664 146.031 70.5694 145.972 70.5584 145.914C70.5474 145.856 70.5228 145.801 70.4865 145.755C70.4503 145.709 70.4036 145.671 70.3501 145.647C70.2967 145.622 70.2381 145.61 70.1793 145.613L64.5703 145.722C64.4619 145.721 64.3572 145.761 64.2766 145.833C64.196 145.906 64.1454 146.006 64.1345 146.114Z" fill="white"/>
<path d="M58.7173 9.2597C62.4261 14.6289 52.1801 12.6983 49.9487 17.745C49.9574 12.6983 50.3758 8.80209 58.7173 9.2597Z" fill="#263238"/>
<path d="M67.5034 57.0419C62.0949 58.1837 50.8204 60.8073 48.6675 57.0419C50.0708 56.0788 64.3742 56.2531 67.5034 57.0419Z" fill="#FF6600"/>
<path d="M54.5769 59.9972C54.2195 59.9972 53.8839 59.9972 53.5789 59.9711C50.0575 59.788 49.0508 58.7072 49.0115 58.6636C49.0002 58.653 48.9911 58.6402 48.985 58.626C48.9788 58.6117 48.9756 58.5964 48.9756 58.5808C48.9756 58.5653 48.9788 58.5499 48.985 58.5357C48.9911 58.5214 49.0002 58.5086 49.0115 58.498C49.0336 58.4762 49.0633 58.464 49.0943 58.464C49.1254 58.464 49.1551 58.4762 49.1772 58.498C49.1772 58.498 50.1795 59.5483 53.5832 59.7314C56.9869 59.9144 64.7401 58.9556 67.0935 57.8574C67.1226 57.8449 67.1553 57.8438 67.1851 57.8543C67.215 57.8648 67.2398 57.8861 67.2547 57.914C67.2669 57.9436 67.2673 57.9768 67.256 58.0067C67.2447 58.0366 67.2224 58.0611 67.1937 58.0753C64.9841 59.1169 58.399 59.9972 54.5769 59.9972Z" fill="white"/>
<path d="M53.287 68.5132C53.1698 68.5091 53.0568 68.4679 52.9645 68.3955C51.2213 67.1665 52.873 61.1566 53.8013 59.518C53.8142 59.4958 53.8338 59.4783 53.8573 59.468C53.8807 59.4576 53.9068 59.4549 53.9319 59.4602C53.957 59.4655 53.9798 59.4785 53.997 59.4975C54.0142 59.5165 54.0251 59.5404 54.0279 59.5659C54.0933 60.407 54.6511 67.7941 53.4962 68.4565C53.4328 68.4938 53.3606 68.5134 53.287 68.5132ZM53.8187 60.0104C52.9035 62.0108 51.6397 67.1883 53.0996 68.1994C53.2478 68.304 53.3306 68.2778 53.3786 68.2517C54.1194 67.8246 54.0541 63.2442 53.8187 60.0104Z" fill="white"/>
<path d="M55.1304 67.0876C55.0391 67.0847 54.9491 67.0655 54.8646 67.031C52.8511 66.2378 53.2869 61.2913 53.7925 59.5437C53.8001 59.5201 53.8145 59.4992 53.8338 59.4837C53.8532 59.4682 53.8767 59.4588 53.9014 59.4565C53.9265 59.457 53.9509 59.4646 53.9718 59.4785C53.9926 59.4924 54.0091 59.512 54.0191 59.535C54.2588 60.2061 56.3333 66.0983 55.4398 66.9656C55.3569 67.0456 55.2456 67.0895 55.1304 67.0876ZM53.9232 59.9839C53.4569 62.0104 53.2782 66.1506 54.9517 66.8087C55.1696 66.8959 55.2481 66.8087 55.2742 66.8087C55.8408 66.2465 54.821 62.5552 53.9232 59.9839Z" fill="white"/>
<path d="M51.984 64.1676C51.9556 64.1679 51.928 64.1579 51.9064 64.1395C51.8848 64.121 51.8705 64.0954 51.8663 64.0673C51.6571 62.7294 52.9471 59.7615 53.8711 59.4651C53.8856 59.4597 53.9012 59.4573 53.9167 59.4582C53.9322 59.459 53.9474 59.463 53.9613 59.47C53.9752 59.4769 53.9875 59.4867 53.9974 59.4986C54.0074 59.5105 54.0148 59.5243 54.0192 59.5392C54.0291 59.5693 54.0268 59.602 54.013 59.6305C53.9992 59.6589 53.9749 59.6809 53.9452 59.6917C53.1345 59.9489 51.9143 62.8296 52.1017 64.0499C52.1055 64.081 52.0972 64.1123 52.0785 64.1375C52.0599 64.1626 52.0323 64.1796 52.0014 64.185L51.984 64.1676Z" fill="white"/>
<path d="M77.8919 15.91L76.2187 18.1145C76.0512 18.1463 75.8291 18.1481 75.5522 18.12C75.2796 18.0912 74.97 18.0092 74.6233 17.8739C74.2767 17.7387 73.9104 17.5246 73.5246 17.2317C73.1682 16.9612 72.888 16.6594 72.6838 16.3262C72.4814 15.9906 72.3598 15.6329 72.3188 15.2532C72.2821 14.8728 72.3294 14.4788 72.4607 14.071C72.5963 13.6627 72.8227 13.2496 73.1398 12.8318L73.3665 12.5332C73.6836 12.1154 74.0218 11.7872 74.3811 11.5486C74.7404 11.31 75.106 11.1575 75.4778 11.0912C75.854 11.0242 76.2248 11.0384 76.5902 11.1337C76.9581 11.2308 77.3091 11.4062 77.6433 11.6599C78.1373 12.0349 78.4794 12.4185 78.6697 12.8108C78.8619 13.2007 78.9333 13.5939 78.8842 13.9904C78.8368 14.3845 78.6942 14.774 78.4563 15.1589L77.2139 14.2159C77.3237 14.0203 77.3908 13.835 77.4152 13.6598C77.444 13.4841 77.42 13.3168 77.3431 13.1577C77.2682 12.9962 77.1311 12.8399 76.9321 12.6888C76.7772 12.5713 76.6107 12.4972 76.4326 12.4666C76.2569 12.4378 76.0735 12.4574 75.8824 12.5254C75.6932 12.591 75.4975 12.7059 75.2954 12.8701C75.0958 13.0362 74.8933 13.2544 74.6881 13.5247L74.4559 13.8307C74.2526 14.0986 74.0965 14.3501 73.9878 14.5852C73.8816 14.8222 73.8226 15.0427 73.8109 15.2469C73.8036 15.4505 73.8451 15.6408 73.9354 15.8178C74.03 15.9943 74.1756 16.1571 74.3722 16.3063C74.5099 16.4108 74.6362 16.4893 74.7513 16.5418C74.8683 16.5918 74.9718 16.6239 75.0618 16.638C75.1561 16.6515 75.2326 16.6553 75.2913 16.6495L75.9236 15.8163L75.0242 15.1336L75.6985 14.2451L77.8919 15.91ZM77.7399 17.2356L77.7987 17.1582C78.0207 16.8657 78.2667 16.6283 78.5368 16.446C78.8088 16.2612 79.0949 16.1394 79.3951 16.0807C79.6954 16.0219 80.0029 16.0326 80.3178 16.1128C80.6345 16.1905 80.949 16.3479 81.2611 16.5848C81.5757 16.8235 81.813 17.085 81.973 17.3692C82.1374 17.6528 82.2316 17.947 82.2558 18.252C82.28 18.557 82.2396 18.8653 82.1348 19.177C82.0318 19.4861 81.8693 19.787 81.6473 20.0794L81.5886 20.1568C81.3684 20.4468 81.1224 20.6842 80.8504 20.869C80.5803 21.0514 80.2942 21.1731 79.9921 21.2344C79.6919 21.2931 79.3843 21.2824 79.0694 21.2022C78.7546 21.122 78.4411 20.9635 78.129 20.7266C77.8168 20.4897 77.5786 20.2294 77.4142 19.9458C77.2499 19.6623 77.1556 19.368 77.1314 19.063C77.1091 18.7556 77.1495 18.4473 77.2525 18.1381C77.3573 17.8264 77.5198 17.5256 77.7399 17.2356ZM79.041 18.1011L78.9822 18.1786C78.8685 18.3285 78.7732 18.477 78.6964 18.624C78.6197 18.771 78.5698 18.9133 78.5468 19.0508C78.5257 19.1858 78.5388 19.3139 78.5863 19.4352C78.6337 19.5564 78.7238 19.6674 78.8565 19.7681C78.9867 19.867 79.1154 19.922 79.2424 19.9332C79.372 19.9463 79.4989 19.9245 79.6233 19.8678C79.7495 19.8087 79.8731 19.7224 79.9941 19.6089C80.1151 19.4955 80.2324 19.3638 80.3462 19.2139L80.405 19.1365C80.5151 18.9915 80.6075 18.8467 80.6824 18.7021C80.7592 18.555 80.809 18.4128 80.832 18.2753C80.8569 18.1354 80.8466 18.0035 80.801 17.8799C80.7554 17.7562 80.6663 17.644 80.5336 17.5432C80.4033 17.4444 80.2725 17.3896 80.1411 17.379C80.0122 17.3702 79.8837 17.3967 79.7556 17.4582C79.6294 17.5174 79.5058 17.6037 79.3848 17.7171C79.2657 17.8281 79.1511 17.9561 79.041 18.1011ZM81.9867 20.459L82.0455 20.3816C82.2675 20.0892 82.5135 19.8518 82.7836 19.6694C83.0556 19.4846 83.3417 19.3629 83.6419 19.3041C83.9422 19.2454 84.2497 19.2561 84.5646 19.3363C84.8813 19.414 85.1958 19.5713 85.5079 19.8082C85.8225 20.047 86.0598 20.3085 86.2198 20.5926C86.3842 20.8762 86.4784 21.1705 86.5026 21.4755C86.5268 21.7804 86.4864 22.0887 86.3816 22.4004C86.2786 22.7096 86.1161 23.0104 85.8941 23.3029L85.8354 23.3803C85.6152 23.6703 85.3692 23.9077 85.0972 24.0925C84.8271 24.2748 84.541 24.3966 84.2389 24.4578C83.9387 24.5165 83.6311 24.5058 83.3162 24.4256C83.0014 24.3455 82.6879 24.1869 82.3758 23.95C82.0636 23.7131 81.8254 23.4529 81.661 23.1693C81.4967 22.8857 81.4024 22.5914 81.3782 22.2864C81.3559 21.979 81.3963 21.6707 81.4993 21.3615C81.6041 21.0499 81.7666 20.749 81.9867 20.459ZM83.2878 21.3246L83.229 21.402C83.1152 21.5519 83.02 21.7004 82.9432 21.8474C82.8665 21.9945 82.8166 22.1367 82.7936 22.2742C82.7725 22.4092 82.7856 22.5374 82.833 22.6586C82.8805 22.7798 82.9706 22.8908 83.1033 22.9915C83.2335 23.0904 83.3622 23.1454 83.4892 23.1567C83.6187 23.1697 83.7457 23.148 83.87 23.0913C83.9963 23.0321 84.1199 22.9458 84.2409 22.8324C84.3618 22.7189 84.4792 22.5872 84.593 22.4373L84.6518 22.3599C84.7618 22.2149 84.8543 22.0701 84.9292 21.9255C85.0059 21.7785 85.0558 21.6362 85.0788 21.4987C85.1037 21.3588 85.0934 21.227 85.0478 21.1033C85.0022 20.9796 84.9131 20.8674 84.7804 20.7667C84.6501 20.6678 84.5193 20.6131 84.3879 20.6024C84.259 20.5937 84.1305 20.6201 84.0024 20.6817C83.8762 20.7408 83.7526 20.8271 83.6316 20.9406C83.5124 21.0516 83.3979 21.1796 83.2878 21.3246ZM87.8922 26.58L91.4962 21.8319L92.7459 22.7804L88.448 28.4428L87.3273 27.5922L87.8922 26.58ZM86.2279 23.6898L86.2867 23.6124C86.5161 23.3101 86.7582 23.0601 87.013 22.8622C87.2696 22.6619 87.5311 22.5215 87.7976 22.4409C88.0659 22.3579 88.3344 22.341 88.6032 22.39C88.8719 22.4391 89.1329 22.5597 89.386 22.7518C89.6121 22.9235 89.7699 23.1265 89.8592 23.3609C89.9504 23.5928 89.9854 23.8478 89.964 24.126C89.9427 24.4042 89.875 24.6976 89.7609 25.0061C89.6487 25.3121 89.5031 25.6238 89.3242 25.9412L89.2542 26.0334C89.0097 26.2739 88.7579 26.4856 88.4989 26.6687C88.2418 26.8492 87.9831 26.986 87.7227 27.0789C87.4624 27.1718 87.2061 27.2058 86.9539 27.1809C86.706 27.1554 86.4677 27.0559 86.2391 26.8824C85.986 26.6903 85.8006 26.4702 85.6829 26.222C85.5677 25.9758 85.514 25.7123 85.5218 25.4315C85.532 25.1527 85.5973 24.8652 85.7174 24.569C85.8376 24.2729 86.0078 23.9798 86.2279 23.6898ZM87.529 24.5554L87.4702 24.6328C87.3564 24.7827 87.2609 24.929 87.1835 25.0718C87.1062 25.2145 87.0536 25.3527 87.0256 25.4865C87.002 25.6196 87.009 25.7431 87.0467 25.8568C87.0867 25.9725 87.1657 26.0751 87.2837 26.1646C87.4434 26.2859 87.6038 26.3476 87.7649 26.3497C87.9284 26.3537 88.0879 26.3044 88.2434 26.2016C88.4013 26.1007 88.5484 25.9528 88.6847 25.758L88.9057 25.4667C89.0338 25.3083 89.1309 25.1573 89.1971 25.0139C89.2652 24.8681 89.3015 24.731 89.3059 24.6027C89.3128 24.4762 89.2879 24.3585 89.2311 24.2496C89.1787 24.14 89.0935 24.0405 88.9755 23.951C88.86 23.8633 88.7412 23.8157 88.6191 23.8082C88.4994 23.8026 88.3777 23.8303 88.2539 23.8913C88.132 23.9498 88.0096 24.037 87.8868 24.153C87.7658 24.2664 87.6465 24.4006 87.529 24.5554ZM95.393 32.1455L94.6375 33.1409L91.9243 31.0814L92.6798 30.0861L95.393 32.1455ZM96.4592 26.0637L92.3851 31.4312L91.0912 30.4491L95.1653 25.0816L96.4592 26.0637ZM98.1383 34.2699L100.43 31.2507L101.676 32.1965L98.6484 36.1852L97.4835 35.301L98.1383 34.2699ZM98.8718 33.5484L99.2019 33.7873C98.9985 34.0552 98.7782 34.2792 98.5408 34.4592C98.3053 34.6368 98.0614 34.7616 97.8092 34.8336C97.5595 34.9074 97.3083 34.922 97.0555 34.8774C96.8071 34.8321 96.5649 34.72 96.329 34.5409C96.1324 34.3917 95.9722 34.2275 95.8486 34.0485C95.7293 33.8688 95.6555 33.6753 95.627 33.4678C95.6005 33.2578 95.6249 33.0342 95.7003 32.7971C95.78 32.5593 95.9197 32.309 96.1193 32.046L98.078 29.4655L99.3203 30.4085L97.3561 32.9964C97.2889 33.0848 97.2421 33.1694 97.2157 33.2501C97.1894 33.3308 97.1803 33.4091 97.1885 33.4851C97.1985 33.5586 97.2259 33.6297 97.2706 33.6984C97.3195 33.7666 97.3846 33.8315 97.4657 33.893C97.6525 34.0348 97.8285 34.1065 97.9939 34.108C98.1593 34.1096 98.3141 34.0587 98.4585 33.9552C98.6054 33.8536 98.7431 33.718 98.8718 33.5484ZM101.69 37.0997C101.806 37.1873 101.92 37.2411 102.033 37.2608C102.15 37.28 102.259 37.2662 102.361 37.2192C102.467 37.1717 102.561 37.0905 102.644 36.9756L103.813 37.8626C103.588 38.1643 103.315 38.3713 102.993 38.4836C102.676 38.5953 102.342 38.6168 101.991 38.5482C101.645 38.4789 101.312 38.323 100.992 38.0805C100.68 37.8436 100.446 37.5862 100.289 37.3082C100.134 37.0278 100.046 36.7369 100.027 36.4357C100.012 36.1338 100.059 35.8302 100.167 35.5247C100.277 35.2211 100.441 34.9256 100.659 34.638L100.724 34.5532C100.942 34.2657 101.183 34.0279 101.445 33.84C101.712 33.6515 101.992 33.5251 102.285 33.4607C102.582 33.3958 102.885 33.4006 103.192 33.4752C103.504 33.5492 103.815 33.7037 104.124 33.9387C104.456 34.1906 104.701 34.4752 104.859 34.7927C105.02 35.112 105.082 35.4459 105.046 35.7944C105.01 36.1428 104.862 36.4857 104.602 36.823L103.434 35.936C103.527 35.8174 103.591 35.6953 103.624 35.5696C103.658 35.4439 103.654 35.3211 103.614 35.2011C103.577 35.0806 103.495 34.9718 103.367 34.8748C103.24 34.7778 103.115 34.7277 102.993 34.7246C102.872 34.7214 102.752 34.7543 102.634 34.8234C102.52 34.8919 102.407 34.9844 102.295 35.101C102.186 35.2195 102.076 35.3512 101.966 35.4962L101.902 35.581C101.79 35.7284 101.691 35.872 101.604 36.0115C101.522 36.1505 101.464 36.285 101.431 36.4151C101.4 36.5426 101.403 36.6645 101.439 36.7807C101.476 36.8945 101.56 37.0008 101.69 37.0997ZM108.818 34.9738L104.517 40.6398L103.275 39.6969L107.576 34.0308L108.818 34.9738ZM110.096 38.5874L106.821 39.3035L105.226 39.522L105.283 38.3218L106.786 37.9112L108.607 37.457L110.096 38.5874ZM105.737 41.566L106.052 38.9399L107.465 38.9842L107.16 42.6461L105.737 41.566Z" fill="black"/>
</svg>
